<svg width="22" height="24" viewBox="0 0 22 24" fill="none" xmlns="http://www.w3.org/2000/svg">
<path d="M2.35619 3.02456L4.41098 16.6405C4.44795 16.9118 4.5808 17.1601 4.78457 17.3386C4.98834 17.5171 5.249 17.6135 5.51758 17.6098H17.5999C17.8366 17.6098 18.0669 17.532 18.2568 17.3879C18.4466 17.2438 18.5858 17.0411 18.6537 16.8099L21.9537 5.59045C22.0029 5.42293 22.0131 5.246 21.9833 5.07378C21.9536 4.90156 21.8848 4.73881 21.7824 4.59853C21.68 4.45826 21.5469 4.34433 21.3937 4.26585C21.2405 4.18736 21.0714 4.1465 20.8999 4.14651H4.75198L4.38898 1.74779C4.35232 1.47319 4.21662 1.22238 4.00839 1.04433C3.80563 0.869765 3.54769 0.776092 3.28239 0.780678H1.1C0.955543 0.780678 0.812503 0.809698 0.679046 0.866081C0.545588 0.922464 0.424325 1.00511 0.322181 1.10929C0.220037 1.21347 0.139012 1.33715 0.0837321 1.47327C0.0284521 1.60939 0 1.75529 0 1.90262C0 2.04996 0.0284521 2.19585 0.0837321 2.33197C0.139012 2.46809 0.220037 2.59177 0.322181 2.69596C0.424325 2.80014 0.545588 2.88278 0.679046 2.93916C0.812503 2.99554 0.955543 3.02456 1.1 3.02456H2.35619ZM6.44378 15.3659L5.09078 6.39039H19.4215L16.7815 15.3659H6.44378ZM8.79997 20.9757C8.79997 21.5708 8.56818 22.1415 8.15561 22.5623C7.74303 22.9831 7.18345 23.2195 6.59998 23.2195C6.0165 23.2195 5.45693 22.9831 5.04435 22.5623C4.63177 22.1415 4.39998 21.5708 4.39998 20.9757C4.39998 20.3805 4.63177 19.8098 5.04435 19.389C5.45693 18.9682 6.0165 18.7318 6.59998 18.7318C7.18345 18.7318 7.74303 18.9682 8.15561 19.389C8.56818 19.8098 8.79997 20.3805 8.79997 20.9757ZM18.6999 20.9757C18.6999 21.5708 18.4681 22.1415 18.0556 22.5623C17.643 22.9831 17.0834 23.2195 16.4999 23.2195C15.9165 23.2195 15.3569 22.9831 14.9443 22.5623C14.5317 22.1415 14.2999 21.5708 14.2999 20.9757C14.2999 20.3805 14.5317 19.8098 14.9443 19.389C15.3569 18.9682 15.9165 18.7318 16.4999 18.7318C17.0834 18.7318 17.643 18.9682 18.0556 19.389C18.4681 19.8098 18.6999 20.3805 18.6999 20.9757Z" fill="#565656"/>
</svg>
