<svg width="22" height="22" viewBox="0 0 22 22" fill="none" xmlns="http://www.w3.org/2000/svg">
<path d="M2.35619 2.20014L4.41098 15.5496C4.44795 15.8157 4.5808 16.0591 4.78457 16.2341C4.98834 16.4091 5.249 16.5037 5.51758 16.5H17.5999C17.8366 16.5001 18.0669 16.4238 18.2568 16.2825C18.4466 16.1412 18.5858 15.9424 18.6537 15.7157L21.9537 4.71582C22.0029 4.55158 22.0131 4.37812 21.9833 4.20926C21.9536 4.04041 21.8848 3.88085 21.7824 3.74332C21.68 3.60578 21.5469 3.49409 21.3937 3.41714C21.2405 3.34019 21.0714 3.30012 20.8999 3.30013H4.75198L4.38898 0.948351C4.35232 0.679116 4.21662 0.433213 4.00839 0.258656C3.80563 0.0875014 3.54769 -0.00433895 3.28239 0.000157627H1.1C0.955543 0.000157624 0.812503 0.0286097 0.679046 0.0838894C0.545588 0.139169 0.424325 0.220194 0.322181 0.322338C0.220037 0.424482 0.139012 0.545744 0.0837321 0.679201C0.0284521 0.812658 0 0.955697 0 1.10015C0 1.2446 0.0284521 1.38764 0.0837321 1.5211C0.139012 1.65456 0.220037 1.77582 0.322181 1.87796C0.424325 1.98011 0.545588 2.06113 0.679046 2.11641C0.812503 2.17169 0.955543 2.20014 1.1 2.20014H2.35619ZM6.44378 14.3001L5.09078 5.50012H19.4215L16.7815 14.3001H6.44378ZM8.79997 19.8C8.79997 20.3835 8.56818 20.9431 8.15561 21.3556C7.74303 21.7682 7.18345 22 6.59998 22C6.0165 22 5.45693 21.7682 5.04435 21.3556C4.63177 20.9431 4.39998 20.3835 4.39998 19.8C4.39998 19.2165 4.63177 18.657 5.04435 18.2444C5.45693 17.8318 6.0165 17.6 6.59998 17.6C7.18345 17.6 7.74303 17.8318 8.15561 18.2444C8.56818 18.657 8.79997 19.2165 8.79997 19.8ZM18.6999 19.8C18.6999 20.3835 18.4681 20.9431 18.0556 21.3556C17.643 21.7682 17.0834 22 16.4999 22C15.9165 22 15.3569 21.7682 14.9443 21.3556C14.5317 20.9431 14.2999 20.3835 14.2999 19.8C14.2999 19.2165 14.5317 18.657 14.9443 18.2444C15.3569 17.8318 15.9165 17.6 16.4999 17.6C17.0834 17.6 17.643 17.8318 18.0556 18.2444C18.4681 18.657 18.6999 19.2165 18.6999 19.8Z" fill="#FFFAFA"/>
</svg>
