<svg width="23" height="24" viewBox="0 0 23 24" fill="none" xmlns="http://www.w3.org/2000/svg">
<path d="M20.3441 19.6541C21.5246 18.1732 22.3456 16.4177 22.7378 14.536C23.1299 12.6543 23.0816 10.7018 22.597 8.84364C22.1123 6.98551 21.2055 5.27643 19.9533 3.86096C18.7011 2.4455 17.1404 1.36529 15.4032 0.711731C13.6659 0.0581692 11.8032 -0.149525 9.97267 0.10622C8.14213 0.361964 6.3976 1.07362 4.88665 2.18099C3.3757 3.28836 2.14279 4.75887 1.2922 6.46811C0.441618 8.17735 -0.00161328 10.075 4.41229e-06 12.0007C0.000625177 14.8 0.946757 17.5096 2.67238 19.6541L2.65594 19.6687C2.71348 19.7407 2.77924 19.8024 2.83842 19.8735C2.91241 19.9618 2.99214 20.0449 3.06859 20.1307C3.29875 20.3912 3.53549 20.6415 3.78374 20.8763C3.85937 20.9483 3.93746 21.0151 4.01391 21.0837C4.27695 21.3202 4.5474 21.5448 4.8277 21.7539C4.86387 21.7796 4.89675 21.813 4.93292 21.8396V21.8293C6.85817 23.2419 9.15488 24 11.509 24C13.8632 24 16.1599 23.2419 18.0852 21.8293V21.8396C18.1213 21.813 18.1534 21.7796 18.1904 21.7539C18.4699 21.5439 18.7411 21.3202 19.0042 21.0837C19.0806 21.0151 19.1587 20.9474 19.2344 20.8763C19.4826 20.6406 19.7193 20.3912 19.9495 20.1307C20.0259 20.0449 20.1049 19.9618 20.1797 19.8735C20.238 19.8024 20.3046 19.7407 20.3622 19.6678L20.3441 19.6541ZM11.5082 5.14424C12.2398 5.14424 12.955 5.37044 13.5633 5.79422C14.1716 6.218 14.6457 6.82034 14.9257 7.52507C15.2057 8.2298 15.2789 9.00526 15.1362 9.75339C14.9935 10.5015 14.6412 11.1887 14.1239 11.7281C13.6065 12.2675 12.9474 12.6348 12.2299 12.7836C11.5123 12.9324 10.7686 12.856 10.0927 12.5641C9.41673 12.2722 8.83902 11.7779 8.43256 11.1437C8.0261 10.5094 7.80915 9.76377 7.80915 9.00098C7.80915 7.97811 8.19888 6.99713 8.89259 6.27386C9.5863 5.55058 10.5272 5.14424 11.5082 5.14424ZM4.93785 19.6541C4.95211 18.5288 5.39074 17.4546 6.15884 16.6638C6.92694 15.8731 7.96275 15.4294 9.04218 15.4289H13.9743C15.0537 15.4294 16.0895 15.8731 16.8576 16.6638C17.6257 17.4546 18.0643 18.5288 18.0786 19.6541C16.2758 21.3479 13.935 22.2853 11.5082 22.2853C9.08142 22.2853 6.74066 21.3479 4.93785 19.6541Z" fill="#565656"/>
</svg>
