<svg width="39" height="31" viewBox="0 0 39 31" fill="none" xmlns="http://www.w3.org/2000/svg">
<path d="M2.7272 13.6364H19.0904V16.3636H2.7272V13.6364ZM0 6.81836H13.636V9.54556H0V6.81836Z" fill="#565656"/>
<path d="M38.0696 14.4624L33.9788 4.91715C33.8738 4.67181 33.6991 4.4627 33.4763 4.3158C33.2535 4.16889 32.9925 4.09066 32.7256 4.0908H28.6348V1.3636C28.6348 1.00195 28.4912 0.655115 28.2354 0.39939C27.9797 0.143665 27.6329 0 27.2712 0H5.45361V2.7272H25.9076V19.8486C25.2863 20.2094 24.7425 20.6896 24.3077 21.2616C23.8728 21.8336 23.5555 22.486 23.3741 23.1812H14.8052C14.4733 21.8958 13.684 20.7756 12.5852 20.0305C11.4865 19.2854 10.1537 18.9666 8.83671 19.1339C7.51972 19.3012 6.30895 19.943 5.43136 20.9391C4.55376 21.9353 4.06958 23.2173 4.06958 24.5448C4.06958 25.8724 4.55376 27.1544 5.43136 28.1505C6.30895 29.1466 7.51972 29.7885 8.83671 29.9558C10.1537 30.123 11.4865 29.8043 12.5852 29.0592C13.684 28.3141 14.4733 27.1938 14.8052 25.9084H23.3741C23.6707 27.0787 24.3491 28.1167 25.3019 28.8581C26.2547 29.5996 27.4275 30.0021 28.6348 30.0021C29.8421 30.0021 31.015 29.5996 31.9678 28.8581C32.9206 28.1167 33.599 27.0787 33.8956 25.9084H36.8164C37.1781 25.9084 37.5249 25.7648 37.7807 25.509C38.0364 25.2533 38.18 24.9065 38.18 24.5448V14.9996C38.1801 14.8149 38.1425 14.6321 38.0696 14.4624ZM9.54442 27.272C9.00503 27.272 8.47775 27.1121 8.02926 26.8124C7.58078 26.5127 7.23122 26.0868 7.02481 25.5885C6.81839 25.0901 6.76439 24.5418 6.86962 24.0128C6.97485 23.4837 7.23459 22.9978 7.61599 22.6164C7.9974 22.235 8.48334 21.9753 9.01237 21.87C9.54139 21.7648 10.0897 21.8188 10.5881 22.0252C11.0864 22.2316 11.5123 22.5812 11.812 23.0297C12.1117 23.4782 12.2716 24.0054 12.2716 24.5448C12.2709 25.2679 11.9833 25.9612 11.472 26.4724C10.9607 26.9837 10.2675 27.2713 9.54442 27.272ZM28.6348 6.81801H31.8257L34.7492 13.636H28.6348V6.81801ZM28.6348 27.272C28.0954 27.272 27.5682 27.1121 27.1197 26.8124C26.6712 26.5127 26.3216 26.0868 26.1152 25.5885C25.9088 25.0901 25.8548 24.5418 25.96 24.0128C26.0653 23.4837 26.325 22.9978 26.7064 22.6164C27.0878 22.235 27.5738 21.9753 28.1028 21.87C28.6318 21.7648 29.1802 21.8188 29.6785 22.0252C30.1768 22.2316 30.6027 22.5812 30.9024 23.0297C31.2021 23.4782 31.362 24.0054 31.362 24.5448C31.3613 25.2679 31.0738 25.9612 30.5625 26.4724C30.0512 26.9837 29.3579 27.2713 28.6348 27.272ZM35.4528 23.1812H33.8956C33.5952 22.0132 32.9158 20.9779 31.9637 20.2376C31.0117 19.4972 29.8408 19.0938 28.6348 19.0904V16.3632H35.4528V23.1812Z" fill="#565656"/>
</svg>
