<svg width="22" height="25" viewBox="0 0 22 25" fill="none" xmlns="http://www.w3.org/2000/svg">
<path d="M20 11C20 17.4286 11 23.4286 11 23.4286C11 23.4286 2 17.4286 2 11C2 8.61305 2.94821 6.32387 4.63604 4.63604C6.32387 2.94821 8.61305 2 11 2C13.3869 2 15.6761 2.94821 17.364 4.63604C19.0518 6.32387 20 8.61305 20 11V11Z" stroke="#2E2E2E" stroke-width="3" stroke-linecap="round" stroke-linejoin="round"/>
<path d="M11.1429 13.2857C12.3263 13.2857 13.2857 12.3263 13.2857 11.1429C13.2857 9.95939 12.3263 9 11.1429 9C9.95939 9 9 9.95939 9 11.1429C9 12.3263 9.95939 13.2857 11.1429 13.2857Z" fill="#2E2E2E" stroke="#2E2E2E" stroke-width="3" stroke-linecap="round" stroke-linejoin="round"/>
</svg>
