<svg width="28" height="22" viewBox="0 0 28 22" fill="none" xmlns="http://www.w3.org/2000/svg">
<path d="M0 1.83007C0 1.3447 0.184375 0.879218 0.512563 0.536014C0.840752 0.19281 1.28587 0 1.75 0H3.5C3.96413 0 4.40925 0.19281 4.73744 0.536014C5.06563 0.879218 5.25 1.3447 5.25 1.83007C5.25 2.31543 5.06563 2.78091 4.73744 3.12412C4.40925 3.46732 3.96413 3.66013 3.5 3.66013H1.75C1.28587 3.66013 0.840752 3.46732 0.512563 3.12412C0.184375 2.78091 0 2.31543 0 1.83007ZM8.75 1.83007C8.75 1.3447 8.93437 0.879218 9.26256 0.536014C9.59075 0.19281 10.0359 0 10.5 0H26.25C26.7141 0 27.1593 0.19281 27.4874 0.536014C27.8156 0.879218 28 1.3447 28 1.83007C28 2.31543 27.8156 2.78091 27.4874 3.12412C27.1593 3.46732 26.7141 3.66013 26.25 3.66013H10.5C10.0359 3.66013 9.59075 3.46732 9.26256 3.12412C8.93437 2.78091 8.75 2.31543 8.75 1.83007ZM0 10.9804C0 10.495 0.184375 10.0295 0.512563 9.68634C0.840752 9.34314 1.28587 9.15033 1.75 9.15033H3.5C3.96413 9.15033 4.40925 9.34314 4.73744 9.68634C5.06563 10.0295 5.25 10.495 5.25 10.9804C5.25 11.4658 5.06563 11.9312 4.73744 12.2744C4.40925 12.6176 3.96413 12.8105 3.5 12.8105H1.75C1.28587 12.8105 0.840752 12.6176 0.512563 12.2744C0.184375 11.9312 0 11.4658 0 10.9804ZM8.75 10.9804C8.75 10.495 8.93437 10.0295 9.26256 9.68634C9.59075 9.34314 10.0359 9.15033 10.5 9.15033H26.25C26.7141 9.15033 27.1593 9.34314 27.4874 9.68634C27.8156 10.0295 28 10.495 28 10.9804C28 11.4658 27.8156 11.9312 27.4874 12.2744C27.1593 12.6176 26.7141 12.8105 26.25 12.8105H10.5C10.0359 12.8105 9.59075 12.6176 9.26256 12.2744C8.93437 11.9312 8.75 11.4658 8.75 10.9804ZM0 20.1307C0 19.6454 0.184375 19.1799 0.512563 18.8367C0.840752 18.4935 1.28587 18.3007 1.75 18.3007H3.5C3.96413 18.3007 4.40925 18.4935 4.73744 18.8367C5.06563 19.1799 5.25 19.6454 5.25 20.1307C5.25 20.6161 5.06563 21.0816 4.73744 21.4248C4.40925 21.768 3.96413 21.9608 3.5 21.9608H1.75C1.28587 21.9608 0.840752 21.768 0.512563 21.4248C0.184375 21.0816 0 20.6161 0 20.1307ZM8.75 20.1307C8.75 19.6454 8.93437 19.1799 9.26256 18.8367C9.59075 18.4935 10.0359 18.3007 10.5 18.3007H26.25C26.7141 18.3007 27.1593 18.4935 27.4874 18.8367C27.8156 19.1799 28 19.6454 28 20.1307C28 20.6161 27.8156 21.0816 27.4874 21.4248C27.1593 21.768 26.7141 21.9608 26.25 21.9608H10.5C10.0359 21.9608 9.59075 21.768 9.26256 21.4248C8.93437 21.0816 8.75 20.6161 8.75 20.1307Z" fill="#FEFEFE"/>
</svg>
