<svg width="12" height="21" viewBox="0 0 12 21" fill="none" xmlns="http://www.w3.org/2000/svg">
<path d="M4.47746 21C4.0799 21 3.77406 20.6486 3.8289 20.2548L4.70407 13.9713C4.78782 13.3699 4.32077 12.8333 3.71363 12.8333H1.70042C0.937729 12.8333 0.455783 12.0138 0.826488 11.3473L6.95027 0.336546C7.0658 0.128812 7.28483 0 7.52254 0C7.9201 0 8.22594 0.351387 8.1711 0.745153L7.29593 7.02872C7.21218 7.63005 7.67924 8.16667 8.28637 8.16667H10.2996C11.0623 8.16667 11.5442 8.98618 11.1735 9.65272L5.04973 20.6635C4.9342 20.8712 4.71517 21 4.47746 21Z" fill="#565656"/>
</svg>
