<svg width="7" height="11" viewBox="0 0 7 11" fill="none" xmlns="http://www.w3.org/2000/svg">
<path d="M2.674 8.158V7.85C2.674 7.514 2.71133 7.21533 2.786 6.954C2.86067 6.69267 2.97733 6.45933 3.136 6.254C3.304 6.04867 3.444 5.89467 3.556 5.792C3.67733 5.68 3.85467 5.53533 4.088 5.358C4.27467 5.218 4.41467 5.106 4.508 5.022C4.61067 4.92867 4.72267 4.812 4.844 4.672C4.97467 4.52267 5.068 4.364 5.124 4.196C5.18 4.028 5.208 3.83667 5.208 3.622C5.208 3.314 5.13333 3.04333 4.984 2.81C4.844 2.56733 4.648 2.38533 4.396 2.264C4.15333 2.13333 3.878 2.068 3.57 2.068C3.11267 2.068 2.716 2.208 2.38 2.488C2.05333 2.75867 1.88067 3.12267 1.862 3.58H0.406C0.424667 2.66533 0.742 1.94667 1.358 1.424C1.98333 0.901333 2.72067 0.64 3.57 0.64C4.45667 0.64 5.20333 0.910666 5.81 1.452C6.41667 1.99333 6.72 2.71667 6.72 3.622C6.72 3.958 6.68267 4.25667 6.608 4.518C6.53333 4.77933 6.41667 5.01733 6.258 5.232C6.09933 5.43733 5.95933 5.596 5.838 5.708C5.71667 5.82 5.544 5.96467 5.32 6.142C5.124 6.30067 4.97933 6.422 4.886 6.506C4.802 6.58067 4.69467 6.69267 4.564 6.842C4.44267 6.99133 4.354 7.15 4.298 7.318C4.25133 7.47667 4.228 7.654 4.228 7.85V8.158H2.674ZM2.59 11V9.208H4.298V11H2.59Z" fill="white"/>
</svg>
