<svg width="27" height="27" viewBox="0 0 27 27" fill="none" xmlns="http://www.w3.org/2000/svg">
<path d="M26.5564 24.4271L21.4581 19.3438C23.103 17.2481 23.9956 14.6603 23.9923 11.9961C23.9923 9.62353 23.2887 7.3042 21.9706 5.33144C20.6524 3.35869 18.7789 1.82112 16.5869 0.913157C14.3949 0.0051977 11.9828 -0.232366 9.65581 0.230508C7.32879 0.693381 5.19128 1.8359 3.51359 3.51359C1.8359 5.19128 0.693381 7.32879 0.230508 9.65581C-0.232366 11.9828 0.0051977 14.3949 0.913157 16.5869C1.82112 18.7789 3.35869 20.6524 5.33144 21.9706C7.3042 23.2887 9.62353 23.9923 11.9961 23.9923C14.6603 23.9956 17.2481 23.103 19.3438 21.4581L24.4271 26.5564C24.5665 26.697 24.7324 26.8085 24.9151 26.8847C25.0978 26.9608 25.2938 27 25.4918 27C25.6897 27 25.8857 26.9608 26.0685 26.8847C26.2512 26.8085 26.417 26.697 26.5564 26.5564C26.697 26.417 26.8085 26.2512 26.8847 26.0685C26.9608 25.8857 27 25.6897 27 25.4918C27 25.2938 26.9608 25.0978 26.8847 24.9151C26.8085 24.7324 26.697 24.5665 26.5564 24.4271ZM2.99904 11.9961C2.99904 10.2167 3.52671 8.47718 4.51532 6.99762C5.50394 5.51805 6.90909 4.36487 8.5531 3.6839C10.1971 3.00293 12.0061 2.82476 13.7514 3.17192C15.4967 3.51907 17.0998 4.37596 18.358 5.63423C19.6163 6.8925 20.4732 8.49563 20.8204 10.2409C21.1675 11.9862 20.9893 13.7952 20.3084 15.4392C19.6274 17.0832 18.4742 18.4883 16.9947 19.477C15.5151 20.4656 13.7756 20.9932 11.9961 20.9932C9.60996 20.9932 7.32151 20.0453 5.63423 18.358C3.94694 16.6708 2.99904 14.3823 2.99904 11.9961Z" fill="#B8B9BB"/>
</svg>
