<svg width="17" height="17" viewBox="0 0 17 17" fill="none" xmlns="http://www.w3.org/2000/svg">
<path d="M16.6247 8.94271L14.2434 1.85938L14.2061 1.77969L14.1615 1.70885C14.1541 1.7 14.1541 1.7 14.1541 1.69115L14.0945 1.62031H14.0871L14.035 1.57604L14.0201 1.55833L13.9531 1.51406H13.9457L13.8787 1.4875H13.8638L13.7894 1.46979H13.5662L8.93 2.65625V0.708333C8.93 0.520472 8.86728 0.340304 8.75564 0.207466C8.64399 0.0746279 8.49256 0 8.33467 0C8.17678 0 8.02535 0.0746279 7.91371 0.207466C7.80206 0.340304 7.73934 0.520472 7.73934 0.708333V2.975L2.85016 4.26771H2.79807L2.72365 4.30312H2.70877L2.64923 4.33854L2.64867 4.34193L2.64705 4.3448L2.64464 4.34672L2.64179 4.3474L2.57482 4.40938C2.57482 4.41172 2.57403 4.41398 2.57264 4.41564C2.57124 4.4173 2.56935 4.41823 2.56738 4.41823L2.52273 4.48021H2.51528C2.4955 4.50238 2.48023 4.52964 2.47063 4.5599L2.45575 4.5776L2.42598 4.65729H2.41854L0.0446501 11.776C0.0155433 11.8603 0.000382794 11.9505 0 12.0417C0 14.1047 1.82321 14.875 2.97667 14.875C4.13013 14.875 5.95334 14.1047 5.95334 12.0417C5.95295 11.9505 5.93779 11.8603 5.90869 11.776L3.78781 5.47188L7.73934 4.42708V15.5833H6.54867C6.39078 15.5833 6.23935 15.658 6.12771 15.7908C6.01606 15.9236 5.95334 16.1038 5.95334 16.2917C5.95334 16.4795 6.01606 16.6597 6.12771 16.7925C6.23935 16.9254 6.39078 17 6.54867 17H10.1207C10.2786 17 10.43 16.9254 10.5416 16.7925C10.6533 16.6597 10.716 16.4795 10.716 16.2917C10.716 16.1038 10.6533 15.9236 10.5416 15.7908C10.43 15.658 10.2786 15.5833 10.1207 15.5833H8.93V4.10833L12.7178 3.10781L10.7607 8.94271C10.7315 9.02701 10.7164 9.1172 10.716 9.20833C10.716 11.2714 12.5392 12.0417 13.6927 12.0417C14.8461 12.0417 16.6693 11.2714 16.6693 9.20833C16.669 9.1172 16.6538 9.02701 16.6247 8.94271ZM2.97667 13.4583C2.41854 13.4583 1.27997 13.1396 1.19811 12.1656L2.97667 6.86198L4.75523 12.1656C4.67337 13.1396 3.53479 13.4583 2.97667 13.4583ZM13.6927 10.625C13.1345 10.625 11.996 10.3062 11.9141 9.33229L13.6927 4.02865L15.4712 9.33229C15.3894 10.3062 14.2508 10.625 13.6927 10.625Z" fill="white"/>
</svg>
