<svg width="14" height="17" viewBox="0 0 14 17" fill="none" xmlns="http://www.w3.org/2000/svg">
<path d="M7.00099 1.88272e-09C7.73152 -2.65949e-05 8.43366 0.281743 8.96002 0.786164C9.48638 1.29058 9.79604 1.97843 9.82399 2.70532L9.82595 2.81295H13.3879C13.5449 2.81346 13.6959 2.87388 13.8096 2.98179C13.9233 3.0897 13.9911 3.23689 13.9992 3.3931C14.0072 3.54931 13.9549 3.70265 13.8529 3.82159C13.7509 3.94053 13.6069 4.01602 13.4507 4.03255L13.3879 4.03597H12.8519L12.0152 15.0774C11.9755 15.6002 11.739 16.0889 11.3529 16.4454C10.9668 16.8019 10.4596 17 9.93306 17H4.06893C3.54236 17 3.03523 16.8019 2.64913 16.4454C2.26302 16.0889 2.02645 15.6002 1.98681 15.0774L1.14964 4.03597H0.614122C0.462086 4.03604 0.315429 3.97995 0.20253 3.87856C0.0896307 3.77716 0.018516 3.63767 0.00294757 3.48708L0 3.42446C0 3.10794 0.241718 2.84719 0.551236 2.81637L0.614122 2.81295H4.17603C4.17603 2.06691 4.47366 1.35142 5.00344 0.823894C5.53323 0.296364 6.25177 1.88272e-09 7.00099 1.88272e-09ZM11.6202 4.03597H2.38181L3.2121 14.9854C3.22845 15.2006 3.3258 15.4017 3.48467 15.5485C3.64354 15.6952 3.85221 15.7769 4.06893 15.777H9.93306C10.1499 15.777 10.3586 15.6954 10.5176 15.5486C10.6766 15.4019 10.774 15.2007 10.7904 14.9854L11.6207 4.03597H11.6202ZM8.59771 6.60432C8.91558 6.60432 9.17744 6.84501 9.20888 7.15321L9.21183 7.21583V12.5971C9.21257 12.7544 9.15244 12.9059 9.04394 13.0201C8.93544 13.1344 8.7869 13.2026 8.62919 13.2107C8.47148 13.2187 8.31671 13.166 8.19703 13.0634C8.07736 12.9608 8.00197 12.8162 7.98654 12.6597L7.98359 12.5971V7.21583C7.98359 6.87827 8.25871 6.60432 8.59771 6.60432ZM5.40427 6.60432C5.72214 6.60432 5.98401 6.84501 6.01545 7.15321L6.0184 7.21583V12.5971C6.01913 12.7544 5.959 12.9059 5.8505 13.0201C5.742 13.1344 5.59347 13.2026 5.43576 13.2107C5.27805 13.2187 5.12328 13.166 5.0036 13.0634C4.88392 12.9608 4.80854 12.8162 4.7931 12.6597L4.79015 12.5971V7.21583C4.79015 6.87827 5.06528 6.60432 5.40427 6.60432ZM7.00099 1.22302C6.59315 1.223 6.20075 1.37837 5.9043 1.65728C5.60785 1.93618 5.42982 2.31748 5.40673 2.72294L5.40427 2.81295H8.59771C8.59771 2.39127 8.42948 1.98687 8.13004 1.6887C7.8306 1.39053 7.42447 1.22302 7.00099 1.22302Z" fill="#C5C5C5"/>
</svg>
